STARTFONT 2.1
FONT -FontForge-Bitstream Vera Sans Mono-Book-R-Normal-SansMono--14-100-100-100-P-79-FontSpecific-0
SIZE 10 100 100
FONTBOUNDINGBOX 8 15 0 -4
COMMENT "Generated by fontforge, http://fontforge.sourceforge.net"
STARTPROPERTIES 28
FONT_NAME "BitstreamVeraSansMono-Roman"
FONT_ASCENT 11
FONT_DESCENT 3
UNDERLINE_POSITION -213
UNDERLINE_THICKNESS 141
QUAD_WIDTH 14
X_HEIGHT 10
CAP_HEIGHT 7
DEFAULT_CHAR -1
FONTNAME_REGISTRY ""
FAMILY_NAME "Bitstream Vera Sans Mono"
FOUNDRY "FontForge"
WEIGHT_NAME "Book"
SETWIDTH_NAME "Normal"
SLANT "R"
ADD_STYLE_NAME "SansMono-"
PIXEL_SIZE 14
POINT_SIZE 100
RESOLUTION_X 100
RESOLUTION_Y 100
RESOLUTION 100
SPACING "P"
AVERAGE_WIDTH 79
CHARSET_REGISTRY "FontSpecific"
CHARSET_ENCODING "0"
CHARSET_COLLECTIONS "ASCII ISO8859-9 FontSpecific"
FULL_NAME "Bitstream Vera Sans Mono"
COPYRIGHT "Copyright (c) 2003 by Bitstream, Inc. All Rights Reserved."
ENDPROPERTIES
CHARS 269
STARTCHAR .null
ENCODING -1
SWIDTH 0 0
DWIDTH 0 0
BBX 1 1 0 0
BITMAP
00
ENDCHAR
STARTCHAR nonmarkingreturn
ENCODING -1
SWIDTH 602 0
DWIDTH 8 0
BBX 1 1 0 0
BITMAP
00
ENDCHAR
STARTCHAR space
ENCODING -1
SWIDTH 602 0
DWIDTH 8 0
BBX 1 1 0 0
BITMAP
00
ENDCHAR
STARTCHAR exclam
ENCODING -1
SWIDTH 602 0
DWIDTH 8 0
BBX 1 11 4 0
BITMAP
80
80
80
80
80
80
80
80
00
80
80
ENDCHAR
STARTCHAR quotedbl
ENCODING -1
SWIDTH 602 0
DWIDTH 8 0
BBX 4 4 2 7
BITMAP
D0
D0
D0
D0
ENDCHAR
STARTCHAR numbersign
ENCODING -1
SWIDTH 602 0
DWIDTH 8 0
BBX 8 11 0 0
BITMAP
0A
12
12
7F
7F
24
24
FF
2C
68
48
ENDCHAR
STARTCHAR dollar
ENCODING -1
SWIDTH 602 0
DWIDTH 8 0
BBX 7 13 1 -2
BITMAP
10
10
7C
D0
D0
70
3C
14
16
94
78
10
10
ENDCHAR
STARTCHAR percent
ENCODING -1
SWIDTH 602 0
DWIDTH 8 0
BBX 8 10 0 0
BITMAP
70
88
88
71
0E
30
4F
09
09
06
ENDCHAR
STARTCHAR ampersand
ENCODING -1
SWIDTH 602 0
DWIDTH 8 0
BBX 8 11 0 0
BITMAP
18
34
20
20
30
70
49
CD
C7
42
3D
ENDCHAR
STARTCHAR quotesingle
ENCODING -1
SWIDTH 602 0
DWIDTH 8 0
BBX 1 4 4 7
BITMAP
80
80
80
80
ENDCHAR
STARTCHAR parenleft
ENCODING -1
SWIDTH 602 0
DWIDTH 8 0
BBX 3 13 3 -2
BITMAP
20
40
40
C0
80
80
80
80
80
C0
40
40
20
ENDCHAR
STARTCHAR parenright
ENCODING -1
SWIDTH 602 0
DWIDTH 8 0
BBX 2 13 3 -2
BITMAP
80
80
40
40
40
40
40
40
40
40
C0
80
80
ENDCHAR
STARTCHAR asterisk
ENCODING -1
SWIDTH 602 0
DWIDTH 8 0
BBX 6 7 1 4
BITMAP
10
10
5C
30
78
94
10
ENDCHAR
STARTCHAR plus
ENCODING -1
SWIDTH 602 0
DWIDTH 8 0
BBX 7 7 1 1
BITMAP
10
10
10
FE
10
10
10
ENDCHAR
STARTCHAR comma
ENCODING -1
SWIDTH 602 0
DWIDTH 8 0
BBX 2 4 3 -2
BITMAP
C0
C0
C0
80
ENDCHAR
STARTCHAR hyphen
ENCODING -1
SWIDTH 602 0
DWIDTH 8 0
BBX 4 2 2 3
BITMAP
F0
F0
ENDCHAR
STARTCHAR period
ENCODING -1
SWIDTH 602 0
DWIDTH 8 0
BBX 2 2 3 0
BITMAP
C0
C0
ENDCHAR
STARTCHAR slash
ENCODING -1
SWIDTH 602 0
DWIDTH 8 0
BBX 6 12 1 -1
BITMAP
04
04
08
08
18
10
30
20
60
40
40
80
ENDCHAR
STARTCHAR zero
ENCODING -1
SWIDTH 602 0
DWIDTH 8 0
BBX 7 11 1 0
BITMAP
30
6C
C4
84
84
B6
94
84
C4
4C
38
ENDCHAR
STARTCHAR one
ENCODING -1
SWIDTH 602 0
DWIDTH 8 0
BBX 5 11 2 0
BITMAP
60
E0
20
20
20
20
20
20
20
20
F8
ENDCHAR
STARTCHAR two
ENCODING -1
SWIDTH 602 0
DWIDTH 8 0
BBX 6 11 1 0
BITMAP
70
FC
04
04
0C
08
18
30
60
C0
FC
ENDCHAR
STARTCHAR three
ENCODING -1
SWIDTH 602 0
DWIDTH 8 0
BBX 6 11 1 0
BITMAP
70
FC
04
04
0C
38
0C
04
04
8C
F8
ENDCHAR
STARTCHAR four
ENCODING -1
SWIDTH 602 0
DWIDTH 8 0
BBX 7 11 1 0
BITMAP
08
18
38
28
48
48
88
FE
08
08
08
ENDCHAR
STARTCHAR five
ENCODING -1
SWIDTH 602 0
DWIDTH 8 0
BBX 6 11 1 0
BITMAP
FC
FC
C0
C0
F8
8C
04
04
04
8C
F8
ENDCHAR
STARTCHAR six
ENCODING -1
SWIDTH 602 0
DWIDTH 8 0
BBX 7 11 1 0
BITMAP
18
7C
C0
80
B8
C4
C4
86
C4
4C
78
ENDCHAR
STARTCHAR seven
ENCODING -1
SWIDTH 602 0
DWIDTH 8 0
BBX 6 11 1 0
BITMAP
FC
FC
0C
08
08
18
10
10
30
20
60
ENDCHAR
STARTCHAR eight
ENCODING -1
SWIDTH 602 0
DWIDTH 8 0
BBX 7 11 1 0
BITMAP
38
4C
C4
C4
4C
78
C4
86
84
C4
78
ENDCHAR
STARTCHAR nine
ENCODING -1
SWIDTH 602 0
DWIDTH 8 0
BBX 6 11 1 0
BITMAP
30
EC
84
84
84
C4
7C
04
04
0C
78
ENDCHAR
STARTCHAR colon
ENCODING -1
SWIDTH 602 0
DWIDTH 8 0
BBX 2 8 3 0
BITMAP
C0
C0
C0
00
00
00
C0
C0
ENDCHAR
STARTCHAR semicolon
ENCODING -1
SWIDTH 602 0
DWIDTH 8 0
BBX 2 10 3 -2
BITMAP
C0
C0
C0
00
00
00
C0
C0
C0
80
ENDCHAR
STARTCHAR less
ENCODING -1
SWIDTH 602 0
DWIDTH 8 0
BBX 7 7 1 1
BITMAP
06
1C
E0
80
70
1C
02
ENDCHAR
STARTCHAR equal
ENCODING -1
SWIDTH 602 0
DWIDTH 8 0
BBX 7 4 1 3
BITMAP
FE
FE
00
FE
ENDCHAR
STARTCHAR greater
ENCODING -1
SWIDTH 602 0
DWIDTH 8 0
BBX 7 7 1 1
BITMAP
80
70
1C
06
1C
E0
80
ENDCHAR
STARTCHAR question
ENCODING -1
SWIDTH 602 0
DWIDTH 8 0
BBX 5 11 2 0
BITMAP
60
F8
08
08
10
20
60
60
00
60
60
ENDCHAR
STARTCHAR at
ENCODING -1
SWIDTH 602 0
DWIDTH 8 0
BBX 8 12 0 -2
BITMAP
1E
23
41
4F
91
91
91
91
4F
40
20
1E
ENDCHAR
STARTCHAR A
ENCODING -1
SWIDTH 602 0
DWIDTH 8 0
BBX 8 11 0 0
BITMAP
18
18
1C
34
24
26
22
7E
42
43
C1
ENDCHAR
STARTCHAR B
ENCODING -1
SWIDTH 602 0
DWIDTH 8 0
BBX 7 11 1 0
BITMAP
F8
DC
C4
C4
CC
F8
C4
C6
C6
C4
F8
ENDCHAR
STARTCHAR C
ENCODING -1
SWIDTH 602 0
DWIDTH 8 0
BBX 6 11 1 0
BITMAP
18
74
40
C0
80
80
80
C0
C0
60
3C
ENDCHAR
STARTCHAR D
ENCODING -1
SWIDTH 602 0
DWIDTH 8 0
BBX 7 11 1 0
BITMAP
F0
F8
8C
84
86
86
86
84
84
8C
F0
ENDCHAR
STARTCHAR E
ENCODING -1
SWIDTH 602 0
DWIDTH 8 0
BBX 7 11 1 0
BITMAP
FC
FC
C0
C0
C0
FC
C0
C0
C0
C0
FE
ENDCHAR
STARTCHAR F
ENCODING -1
SWIDTH 602 0
DWIDTH 8 0
BBX 6 11 2 0
BITMAP
FC
FC
80
80
80
F8
80
80
80
80
80
ENDCHAR
STARTCHAR G
ENCODING -1
SWIDTH 602 0
DWIDTH 8 0
BBX 7 11 1 0
BITMAP
18
6C
C0
80
80
8E
8E
86
C6
46
3C
ENDCHAR
STARTCHAR H
ENCODING -1
SWIDTH 602 0
DWIDTH 8 0
BBX 7 11 1 0
BITMAP
86
86
86
86
86
FE
86
86
86
86
86
ENDCHAR
STARTCHAR I
ENCODING -1
SWIDTH 602 0
DWIDTH 8 0
BBX 6 11 1 0
BITMAP
FC
FC
10
10
10
10
10
10
10
10
FC
ENDCHAR
STARTCHAR J
ENCODING -1
SWIDTH 602 0
DWIDTH 8 0
BBX 6 11 1 0
BITMAP
3C
3C
0C
0C
0C
0C
0C
0C
08
88
F0
ENDCHAR
STARTCHAR K
ENCODING -1
SWIDTH 602 0
DWIDTH 8 0
BBX 7 11 1 0
BITMAP
86
84
88
90
A0
F0
D0
88
8C
84
86
ENDCHAR
STARTCHAR L
ENCODING -1
SWIDTH 602 0
DWIDTH 8 0
BBX 7 11 1 0
BITMAP
C0
C0
C0
C0
C0
C0
C0
C0
C0
C0
FE
ENDCHAR
STARTCHAR M
ENCODING -1
SWIDTH 602 0
DWIDTH 8 0
BBX 7 11 1 0
BITMAP
86
C6
CA
CA
AA
B2
B2
82
82
82
82
ENDCHAR
STARTCHAR N
ENCODING -1
SWIDTH 602 0
DWIDTH 8 0
BBX 6 11 1 0
BITMAP
C4
C4
E4
A4
A4
94
94
9C
8C
8C
84
ENDCHAR
STARTCHAR O
ENCODING -1
SWIDTH 602 0
DWIDTH 8 0
BBX 7 11 1 0
BITMAP
30
6C
C4
84
86
86
86
86
C4
4C
78
ENDCHAR
STARTCHAR P
ENCODING -1
SWIDTH 602 0
DWIDTH 8 0
BBX 7 11 1 0
BITMAP
F8
FC
C6
C6
C6
DC
F8
C0
C0
C0
C0
ENDCHAR
STARTCHAR Q
ENCODING -1
SWIDTH 602 0
DWIDTH 8 0
BBX 7 13 1 -2
BITMAP
30
7C
C4
84
86
86
86
86
84
C4
78
08
04
ENDCHAR
STARTCHAR R
ENCODING -1
SWIDTH 602 0
DWIDTH 8 0
BBX 7 11 1 0
BITMAP
F0
FC
84
84
84
F8
98
8C
84
86
82
ENDCHAR
STARTCHAR S
ENCODING -1
SWIDTH 602 0
DWIDTH 8 0
BBX 7 11 1 0
BITMAP
38
6C
80
80
C0
78
0C
06
06
8C
F8
ENDCHAR
STARTCHAR T
ENCODING -1
SWIDTH 602 0
DWIDTH 8 0
BBX 8 11 0 0
BITMAP
FF
FF
08
08
08
08
08
08
08
08
08
ENDCHAR
STARTCHAR U
ENCODING -1
SWIDTH 602 0
DWIDTH 8 0
BBX 6 11 1 0
BITMAP
84
84
84
84
84
84
84
84
84
CC
78
ENDCHAR
STARTCHAR V
ENCODING -1
SWIDTH 602 0
DWIDTH 8 0
BBX 8 11 0 0
BITMAP
C1
43
42
62
22
26
24
34
14
18
18
ENDCHAR
STARTCHAR W
ENCODING -1
SWIDTH 602 0
DWIDTH 8 0
BBX 8 11 0 0
BITMAP
81
81
C1
D9
59
59
57
56
66
66
66
ENDCHAR
STARTCHAR X
ENCODING -1
SWIDTH 602 0
DWIDTH 8 0
BBX 8 11 0 0
BITMAP
43
62
26
34
1C
18
1C
34
26
42
C1
ENDCHAR
STARTCHAR Y
ENCODING -1
SWIDTH 602 0
DWIDTH 8 0
BBX 8 11 0 0
BITMAP
C1
43
62
24
1C
18
08
08
08
08
08
ENDCHAR
STARTCHAR Z
ENCODING -1
SWIDTH 602 0
DWIDTH 8 0
BBX 7 11 1 0
BITMAP
FE
FE
04
0C
18
10
30
20
40
C0
FE
ENDCHAR
STARTCHAR bracketleft
ENCODING -1
SWIDTH 602 0
DWIDTH 8 0
BBX 3 13 3 -2
BITMAP
E0
80
80
80
80
80
80
80
80
80
80
80
E0
ENDCHAR
STARTCHAR backslash
ENCODING -1
SWIDTH 602 0
DWIDTH 8 0
BBX 6 12 1 -1
BITMAP
80
C0
40
40
20
20
30
10
18
08
0C
04
ENDCHAR
STARTCHAR bracketright
ENCODING -1
SWIDTH 602 0
DWIDTH 8 0
BBX 3 13 2 -2
BITMAP
E0
20
20
20
20
20
20
20
20
20
20
20
E0
ENDCHAR
STARTCHAR asciicircum
ENCODING -1
SWIDTH 602 0
DWIDTH 8 0
BBX 6 4 1 7
BITMAP
30
38
4C
84
ENDCHAR
STARTCHAR underscore
ENCODING -1
SWIDTH 602 0
DWIDTH 8 0
BBX 5 1 1 -4
BITMAP
F8
ENDCHAR
STARTCHAR grave
ENCODING -1
SWIDTH 602 0
DWIDTH 8 0
BBX 3 3 2 9
BITMAP
80
40
20
ENDCHAR
STARTCHAR a
ENCODING -1
SWIDTH 602 0
DWIDTH 8 0
BBX 6 8 1 0
BITMAP
78
04
04
7C
C4
84
8C
74
ENDCHAR
STARTCHAR b
ENCODING -1
SWIDTH 602 0
DWIDTH 8 0
BBX 7 11 1 0
BITMAP
C0
C0
C0
F8
C4
C4
C6
C6
C4
C4
F8
ENDCHAR
STARTCHAR c
ENCODING -1
SWIDTH 602 0
DWIDTH 8 0
BBX 6 8 1 0
BITMAP
3C
60
40
C0
C0
40
60
3C
ENDCHAR
STARTCHAR d
ENCODING -1
SWIDTH 602 0
DWIDTH 8 0
BBX 6 11 1 0
BITMAP
04
04
04
74
CC
84
84
84
84
CC
74
ENDCHAR
STARTCHAR e
ENCODING -1
SWIDTH 602 0
DWIDTH 8 0
BBX 7 8 1 0
BITMAP
38
44
84
FE
80
80
40
3C
ENDCHAR
STARTCHAR f
ENCODING -1
SWIDTH 602 0
DWIDTH 8 0
BBX 6 11 1 0
BITMAP
1C
30
30
FC
30
30
30
30
30
30
30
ENDCHAR
STARTCHAR g
ENCODING -1
SWIDTH 602 0
DWIDTH 8 0
BBX 6 11 1 -3
BITMAP
74
CC
84
84
84
84
CC
74
04
0C
78
ENDCHAR
STARTCHAR h
ENCODING -1
SWIDTH 602 0
DWIDTH 8 0
BBX 6 11 1 0
BITMAP
C0
C0
C0
F8
CC
C4
C4
C4
C4
C4
C4
ENDCHAR
STARTCHAR i
ENCODING -1
SWIDTH 602 0
DWIDTH 8 0
BBX 6 11 1 0
BITMAP
10
10
00
70
10
10
10
10
10
10
FC
ENDCHAR
STARTCHAR j
ENCODING -1
SWIDTH 602 0
DWIDTH 8 0
BBX 4 14 1 -3
BITMAP
10
10
00
70
10
10
10
10
10
10
10
10
10
F0
ENDCHAR
STARTCHAR k
ENCODING -1
SWIDTH 602 0
DWIDTH 8 0
BBX 6 11 2 0
BITMAP
80
80
80
88
90
A0
E0
B0
90
88
8C
ENDCHAR
STARTCHAR l
ENCODING -1
SWIDTH 602 0
DWIDTH 8 0
BBX 6 11 1 0
BITMAP
E0
20
20
20
20
20
20
20
20
30
1C
ENDCHAR
STARTCHAR m
ENCODING -1
SWIDTH 602 0
DWIDTH 8 0
BBX 7 8 1 0
BITMAP
EC
96
92
92
92
92
92
92
ENDCHAR
STARTCHAR n
ENCODING -1
SWIDTH 602 0
DWIDTH 8 0
BBX 6 8 1 0
BITMAP
F8
C4
C4
C4
C4
C4
C4
C4
ENDCHAR
STARTCHAR o
ENCODING -1
SWIDTH 602 0
DWIDTH 8 0
BBX 6 8 1 0
BITMAP
78
CC
84
84
84
84
CC
78
ENDCHAR
STARTCHAR p
ENCODING -1
SWIDTH 602 0
DWIDTH 8 0
BBX 7 11 1 -3
BITMAP
F8
C4
C4
C6
C6
C4
C4
F8
C0
C0
C0
ENDCHAR
STARTCHAR q
ENCODING -1
SWIDTH 602 0
DWIDTH 8 0
BBX 6 11 1 -3
BITMAP
74
4C
84
84
84
84
CC
7C
04
04
04
ENDCHAR
STARTCHAR r
ENCODING -1
SWIDTH 602 0
DWIDTH 8 0
BBX 5 8 3 0
BITMAP
B8
C0
80
80
80
80
80
80
ENDCHAR
STARTCHAR s
ENCODING -1
SWIDTH 602 0
DWIDTH 8 0
BBX 6 8 1 0
BITMAP
7C
44
40
70
1C
04
8C
F8
ENDCHAR
STARTCHAR t
ENCODING -1
SWIDTH 602 0
DWIDTH 8 0
BBX 6 10 1 0
BITMAP
20
20
FC
20
20
20
20
20
20
1C
ENDCHAR
STARTCHAR u
ENCODING -1
SWIDTH 602 0
DWIDTH 8 0
BBX 6 8 1 0
BITMAP
C4
C4
C4
C4
C4
C4
4C
74
ENDCHAR
STARTCHAR v
ENCODING -1
SWIDTH 602 0
DWIDTH 8 0
BBX 7 8 1 0
BITMAP
86
84
44
4C
48
28
38
30
ENDCHAR
STARTCHAR w
ENCODING -1
SWIDTH 602 0
DWIDTH 8 0
BBX 8 8 0 0
BITMAP
81
C1
49
5B
5A
56
66
26
ENDCHAR
STARTCHAR x
ENCODING -1
SWIDTH 602 0
DWIDTH 8 0
BBX 7 8 1 0
BITMAP
C4
4C
38
30
30
68
4C
86
ENDCHAR
STARTCHAR y
ENCODING -1
SWIDTH 602 0
DWIDTH 8 0
BBX 7 11 1 -3
BITMAP
86
C4
44
4C
68
28
30
10
30
20
E0
ENDCHAR
STARTCHAR z
ENCODING -1
SWIDTH 602 0
DWIDTH 8 0
BBX 6 8 1 0
BITMAP
7C
0C
08
10
30
60
40
FC
ENDCHAR
STARTCHAR braceleft
ENCODING -1
SWIDTH 602 0
DWIDTH 8 0
BBX 5 13 2 -2
BITMAP
38
20
20
20
20
60
C0
60
20
20
20
20
38
ENDCHAR
STARTCHAR bar
ENCODING -1
SWIDTH 602 0
DWIDTH 8 0
BBX 1 14 4 -3
BITMAP
80
80
80
80
80
80
80
80
80
80
80
80
80
80
ENDCHAR
STARTCHAR braceright
ENCODING -1
SWIDTH 602 0
DWIDTH 8 0
BBX 5 13 2 -2
BITMAP
C0
60
20
20
20
20
38
20
20
60
60
60
C0
ENDCHAR
STARTCHAR asciitilde
ENCODING -1
SWIDTH 602 0
DWIDTH 8 0
BBX 7 2 1 4
BITMAP
40
FE
ENDCHAR
STARTCHAR nonbreakingspace
ENCODING -1
SWIDTH 602 0
DWIDTH 8 0
BBX 1 1 0 0
BITMAP
00
ENDCHAR
STARTCHAR exclamdown
ENCODING -1
SWIDTH 602 0
DWIDTH 8 0
BBX 1 11 4 0
BITMAP
80
80
00
00
80
80
80
80
80
80
80
ENDCHAR
STARTCHAR cent
ENCODING -1
SWIDTH 602 0
DWIDTH 8 0
BBX 5 11 2 -2
BITMAP
20
78
D0
90
90
90
90
D0
78
10
10
ENDCHAR
STARTCHAR sterling
ENCODING -1
SWIDTH 602 0
DWIDTH 8 0
BBX 7 11 1 0
BITMAP
1C
34
20
20
20
20
FC
20
20
20
FE
ENDCHAR
STARTCHAR currency
ENCODING -1
SWIDTH 602 0
DWIDTH 8 0
BBX 5 5 2 2
BITMAP
F8
88
88
88
F8
ENDCHAR
STARTCHAR yen
ENCODING -1
SWIDTH 602 0
DWIDTH 8 0
BBX 8 11 0 0
BITMAP
C1
43
62
24
7F
18
7F
08
08
08
08
ENDCHAR
STARTCHAR brokenbar
ENCODING -1
SWIDTH 602 0
DWIDTH 8 0
BBX 1 13 4 -3
BITMAP
80
80
80
80
80
00
00
80
80
80
80
80
80
ENDCHAR
STARTCHAR section
ENCODING -1
SWIDTH 602 0
DWIDTH 8 0
BBX 6 12 1 -1
BITMAP
38
68
40
60
78
8C
C4
64
38
08
0C
78
ENDCHAR
STARTCHAR dieresis
ENCODING -1
SWIDTH 602 0
DWIDTH 8 0
BBX 4 1 2 10
BITMAP
D0
ENDCHAR
STARTCHAR copyright
ENCODING -1
SWIDTH 602 0
DWIDTH 8 0
BBX 8 9 0 1
BITMAP
1C
62
9D
A1
A1
A1
B5
4A
3C
ENDCHAR
STARTCHAR ordfeminine
ENCODING -1
SWIDTH 602 0
DWIDTH 8 0
BBX 5 8 2 3
BITMAP
60
90
38
C8
98
E8
00
F8
ENDCHAR
STARTCHAR guillemotleft
ENCODING -1
SWIDTH 602 0
DWIDTH 8 0
BBX 6 6 1 1
BITMAP
24
48
90
D8
64
20
ENDCHAR
STARTCHAR logicalnot
ENCODING -1
SWIDTH 602 0
DWIDTH 8 0
BBX 7 3 1 3
BITMAP
FE
02
02
ENDCHAR
STARTCHAR sfthyphen
ENCODING -1
SWIDTH 602 0
DWIDTH 8 0
BBX 4 2 2 3
BITMAP
F0
F0
ENDCHAR
STARTCHAR registered
ENCODING -1
SWIDTH 602 0
DWIDTH 8 0
BBX 8 9 0 1
BITMAP
18
66
BD
A5
BD
A5
A5
42
3C
ENDCHAR
STARTCHAR macron
ENCODING -1
SWIDTH 602 0
DWIDTH 8 0
BBX 4 1 2 10
BITMAP
F0
ENDCHAR
STARTCHAR degree
ENCODING -1
SWIDTH 602 0
DWIDTH 8 0
BBX 4 5 2 6
BITMAP
60
90
90
90
60
ENDCHAR
STARTCHAR plusminus
ENCODING -1
SWIDTH 602 0
DWIDTH 8 0
BBX 7 8 1 0
BITMAP
10
10
FE
10
10
10
00
FE
ENDCHAR
STARTCHAR twosuperior
ENCODING -1
SWIDTH 602 0
DWIDTH 8 0
BBX 4 7 2 4
BITMAP
60
10
10
20
40
80
60
ENDCHAR
STARTCHAR threesuperior
ENCODING -1
SWIDTH 602 0
DWIDTH 8 0
BBX 4 7 2 4
BITMAP
60
10
10
70
10
90
60
ENDCHAR
STARTCHAR acute
ENCODING -1
SWIDTH 602 0
DWIDTH 8 0
BBX 2 3 4 9
BITMAP
40
C0
80
ENDCHAR
STARTCHAR mu
ENCODING -1
SWIDTH 602 0
DWIDTH 8 0
BBX 7 11 1 -3
BITMAP
C4
C4
C4
C4
C4
C4
CC
BE
80
80
80
ENDCHAR
STARTCHAR paragraph
ENCODING -1
SWIDTH 602 0
DWIDTH 8 0
BBX 6 12 1 -1
BITMAP
3C
F4
F4
F4
F4
74
14
14
14
14
14
14
ENDCHAR
STARTCHAR periodcentered
ENCODING -1
SWIDTH 602 0
DWIDTH 8 0
BBX 2 2 3 4
BITMAP
C0
C0
ENDCHAR
STARTCHAR cedilla
ENCODING -1
SWIDTH 602 0
DWIDTH 8 0
BBX 3 3 3 -3
BITMAP
40
20
C0
ENDCHAR
STARTCHAR onesuperior
ENCODING -1
SWIDTH 602 0
DWIDTH 8 0
BBX 2 7 3 4
BITMAP
C0
40
40
40
40
40
80
ENDCHAR
STARTCHAR ordmasculine
ENCODING -1
SWIDTH 602 0
DWIDTH 8 0
BBX 5 8 2 3
BITMAP
60
90
88
88
98
F0
00
F8
ENDCHAR
STARTCHAR guillemotright
ENCODING -1
SWIDTH 602 0
DWIDTH 8 0
BBX 7 7 1 1
BITMAP
10
98
6C
36
24
C8
90
ENDCHAR
STARTCHAR onequarter
ENCODING -1
SWIDTH 602 0
DWIDTH 8 0
BBX 8 14 0 -2
BITMAP
60
20
20
20
20
70
07
78
86
0A
0A
12
1E
02
ENDCHAR
STARTCHAR onehalf
ENCODING -1
SWIDTH 602 0
DWIDTH 8 0
BBX 8 14 0 -2
BITMAP
60
20
20
20
20
70
07
78
8E
02
02
04
08
0E
ENDCHAR
STARTCHAR threequarters
ENCODING -1
SWIDTH 602 0
DWIDTH 8 0
BBX 8 14 0 -2
BITMAP
70
08
10
10
08
70
07
78
86
0A
0A
12
1E
02
ENDCHAR
STARTCHAR questiondown
ENCODING -1
SWIDTH 602 0
DWIDTH 8 0
BBX 6 11 1 0
BITMAP
10
10
00
10
10
30
60
40
C0
44
78
ENDCHAR
STARTCHAR Agrave
ENCODING -1
SWIDTH 602 0
DWIDTH 8 0
BBX 8 14 0 0
BITMAP
10
18
00
18
18
1C
34
24
26
22
7E
42
43
C1
ENDCHAR
STARTCHAR Aacute
ENCODING -1
SWIDTH 602 0
DWIDTH 8 0
BBX 8 14 0 0
BITMAP
04
08
00
18
18
1C
34
24
26
22
7E
42
43
C1
ENDCHAR
STARTCHAR Acircumflex
ENCODING -1
SWIDTH 602 0
DWIDTH 8 0
BBX 8 14 0 0
BITMAP
18
14
00
18
18
1C
34
24
26
22
7E
42
43
C1
ENDCHAR
STARTCHAR Atilde
ENCODING -1
SWIDTH 602 0
DWIDTH 8 0
BBX 8 13 0 0
BITMAP
3C
00
18
18
1C
34
24
26
22
7E
42
43
C1
ENDCHAR
STARTCHAR Adieresis
ENCODING -1
SWIDTH 602 0
DWIDTH 8 0
BBX 8 13 0 0
BITMAP
34
00
18
18
1C
34
24
26
22
7E
42
43
C1
ENDCHAR
STARTCHAR Aring
ENCODING -1
SWIDTH 602 0
DWIDTH 8 0
BBX 8 14 0 0
BITMAP
08
14
24
1C
18
1C
34
24
26
22
7E
42
43
C1
ENDCHAR
STARTCHAR AE
ENCODING -1
SWIDTH 602 0
DWIDTH 8 0
BBX 8 11 0 0
BITMAP
1F
3F
2C
2C
2C
6F
4C
7C
4C
CC
8F
ENDCHAR
STARTCHAR Ccedilla
ENCODING -1
SWIDTH 602 0
DWIDTH 8 0
BBX 6 14 1 -3
BITMAP
18
74
40
C0
80
80
80
C0
C0
60
3C
08
08
38
ENDCHAR
STARTCHAR Egrave
ENCODING -1
SWIDTH 602 0
DWIDTH 8 0
BBX 7 14 1 0
BITMAP
20
10
00
FC
FC
C0
C0
C0
FC
C0
C0
C0
C0
FE
ENDCHAR
STARTCHAR Eacute
ENCODING -1
SWIDTH 602 0
DWIDTH 8 0
BBX 7 14 1 0
BITMAP
08
10
00
FC
FC
C0
C0
C0
FC
C0
C0
C0
C0
FE
ENDCHAR
STARTCHAR Ecircumflex
ENCODING -1
SWIDTH 602 0
DWIDTH 8 0
BBX 7 14 1 0
BITMAP
10
28
00
FC
FC
C0
C0
C0
FC
C0
C0
C0
C0
FE
ENDCHAR
STARTCHAR Edieresis
ENCODING -1
SWIDTH 602 0
DWIDTH 8 0
BBX 7 13 1 0
BITMAP
68
00
FC
FC
C0
C0
C0
FC
C0
C0
C0
C0
FE
ENDCHAR
STARTCHAR Igrave
ENCODING -1
SWIDTH 602 0
DWIDTH 8 0
BBX 6 14 1 0
BITMAP
20
30
00
FC
FC
10
10
10
10
10
10
10
10
FC
ENDCHAR
STARTCHAR Iacute
ENCODING -1
SWIDTH 602 0
DWIDTH 8 0
BBX 6 14 1 0
BITMAP
08
10
00
FC
FC
10
10
10
10
10
10
10
10
FC
ENDCHAR
STARTCHAR Icircumflex
ENCODING -1
SWIDTH 602 0
DWIDTH 8 0
BBX 6 14 1 0
BITMAP
30
28
00
FC
FC
10
10
10
10
10
10
10
10
FC
ENDCHAR
STARTCHAR Idieresis
ENCODING -1
SWIDTH 602 0
DWIDTH 8 0
BBX 6 13 1 0
BITMAP
68
00
FC
FC
10
10
10
10
10
10
10
10
FC
ENDCHAR
STARTCHAR Eth
ENCODING -1
SWIDTH 602 0
DWIDTH 8 0
BBX 8 11 0 0
BITMAP
70
7C
46
42
42
F3
42
42
42
46
78
ENDCHAR
STARTCHAR Ntilde
ENCODING -1
SWIDTH 602 0
DWIDTH 8 0
BBX 6 13 1 0
BITMAP
78
00
C4
C4
E4
A4
A4
94
94
9C
8C
8C
84
ENDCHAR
STARTCHAR Ograve
ENCODING -1
SWIDTH 602 0
DWIDTH 8 0
BBX 7 13 1 0
BITMAP
20
00
30
6C
C4
84
86
86
86
86
C4
4C
78
ENDCHAR
STARTCHAR Oacute
ENCODING -1
SWIDTH 602 0
DWIDTH 8 0
BBX 7 13 1 0
BITMAP
10
00
30
6C
C4
84
86
86
86
86
C4
4C
78
ENDCHAR
STARTCHAR Ocircumflex
ENCODING -1
SWIDTH 602 0
DWIDTH 8 0
BBX 7 13 1 0
BITMAP
38
00
30
6C
C4
84
86
86
86
86
C4
4C
78
ENDCHAR
STARTCHAR Otilde
ENCODING -1
SWIDTH 602 0
DWIDTH 8 0
BBX 7 13 1 0
BITMAP
78
00
30
6C
C4
84
86
86
86
86
C4
4C
78
ENDCHAR
STARTCHAR Odieresis
ENCODING -1
SWIDTH 602 0
DWIDTH 8 0
BBX 7 13 1 0
BITMAP
68
00
30
6C
C4
84
86
86
86
86
C4
4C
78
ENDCHAR
STARTCHAR multiply
ENCODING -1
SWIDTH 602 0
DWIDTH 8 0
BBX 6 7 1 1
BITMAP
84
4C
38
30
78
CC
04
ENDCHAR
STARTCHAR Oslash
ENCODING -1
SWIDTH 602 0
DWIDTH 8 0
BBX 8 11 0 0
BITMAP
19
37
62
46
4B
4B
53
62
62
66
BC
ENDCHAR
STARTCHAR Ugrave
ENCODING -1
SWIDTH 602 0
DWIDTH 8 0
BBX 6 14 1 0
BITMAP
20
30
00
84
84
84
84
84
84
84
84
84
CC
78
ENDCHAR
STARTCHAR Uacute
ENCODING -1
SWIDTH 602 0
DWIDTH 8 0
BBX 6 14 1 0
BITMAP
18
10
00
84
84
84
84
84
84
84
84
84
CC
78
ENDCHAR
STARTCHAR Ucircumflex
ENCODING -1
SWIDTH 602 0
DWIDTH 8 0
BBX 6 14 1 0
BITMAP
30
28
00
84
84
84
84
84
84
84
84
84
CC
78
ENDCHAR
STARTCHAR Udieresis
ENCODING -1
SWIDTH 602 0
DWIDTH 8 0
BBX 6 13 1 0
BITMAP
68
00
84
84
84
84
84
84
84
84
84
CC
78
ENDCHAR
STARTCHAR Yacute
ENCODING -1
SWIDTH 602 0
DWIDTH 8 0
BBX 8 14 0 0
BITMAP
04
08
00
C1
43
62
24
1C
18
08
08
08
08
08
ENDCHAR
STARTCHAR Thorn
ENCODING -1
SWIDTH 602 0
DWIDTH 8 0
BBX 7 11 1 0
BITMAP
C0
C0
F8
CE
C6
C6
C6
FC
C0
C0
C0
ENDCHAR
STARTCHAR germandbls
ENCODING -1
SWIDTH 602 0
DWIDTH 8 0
BBX 7 11 1 0
BITMAP
78
CC
C4
D8
D0
D0
DC
C4
C6
C6
FC
ENDCHAR
STARTCHAR agrave
ENCODING -1
SWIDTH 602 0
DWIDTH 8 0
BBX 6 12 1 0
BITMAP
40
20
10
00
78
04
04
7C
C4
84
8C
74
ENDCHAR
STARTCHAR aacute
ENCODING -1
SWIDTH 602 0
DWIDTH 8 0
BBX 6 12 1 0
BITMAP
08
18
10
00
78
04
04
7C
C4
84
8C
74
ENDCHAR
STARTCHAR acircumflex
ENCODING -1
SWIDTH 602 0
DWIDTH 8 0
BBX 6 12 1 0
BITMAP
10
30
48
00
78
04
04
7C
C4
84
8C
74
ENDCHAR
STARTCHAR atilde
ENCODING -1
SWIDTH 602 0
DWIDTH 8 0
BBX 6 11 1 0
BITMAP
78
48
00
78
04
04
7C
C4
84
8C
74
ENDCHAR
STARTCHAR adieresis
ENCODING -1
SWIDTH 602 0
DWIDTH 8 0
BBX 6 11 1 0
BITMAP
68
00
00
78
04
04
7C
C4
84
8C
74
ENDCHAR
STARTCHAR aring
ENCODING -1
SWIDTH 602 0
DWIDTH 8 0
BBX 6 13 1 0
BITMAP
30
48
48
38
00
78
04
04
7C
C4
84
8C
74
ENDCHAR
STARTCHAR ae
ENCODING -1
SWIDTH 602 0
DWIDTH 8 0
BBX 8 8 0 0
BITMAP
76
19
09
3F
48
88
D8
77
ENDCHAR
STARTCHAR ccedilla
ENCODING -1
SWIDTH 602 0
DWIDTH 8 0
BBX 6 11 1 -3
BITMAP
3C
60
40
C0
C0
40
60
3C
08
08
38
ENDCHAR
STARTCHAR egrave
ENCODING -1
SWIDTH 602 0
DWIDTH 8 0
BBX 7 12 1 0
BITMAP
60
20
10
00
38
44
84
FE
80
80
40
3C
ENDCHAR
STARTCHAR eacute
ENCODING -1
SWIDTH 602 0
DWIDTH 8 0
BBX 7 12 1 0
BITMAP
08
18
10
00
38
44
84
FE
80
80
40
3C
ENDCHAR
STARTCHAR ecircumflex
ENCODING -1
SWIDTH 602 0
DWIDTH 8 0
BBX 7 12 1 0
BITMAP
10
28
48
00
38
44
84
FE
80
80
40
3C
ENDCHAR
STARTCHAR edieresis
ENCODING -1
SWIDTH 602 0
DWIDTH 8 0
BBX 7 11 1 0
BITMAP
68
00
00
38
44
84
FE
80
80
40
3C
ENDCHAR
STARTCHAR igrave
ENCODING -1
SWIDTH 602 0
DWIDTH 8 0
BBX 6 12 1 0
BITMAP
40
20
10
00
70
10
10
10
10
10
10
FC
ENDCHAR
STARTCHAR iacute
ENCODING -1
SWIDTH 602 0
DWIDTH 8 0
BBX 6 12 1 0
BITMAP
08
18
10
00
70
10
10
10
10
10
10
FC
ENDCHAR
STARTCHAR icircumflex
ENCODING -1
SWIDTH 602 0
DWIDTH 8 0
BBX 6 12 1 0
BITMAP
10
30
48
00
70
10
10
10
10
10
10
FC
ENDCHAR
STARTCHAR idieresis
ENCODING -1
SWIDTH 602 0
DWIDTH 8 0
BBX 6 11 1 0
BITMAP
68
00
00
70
10
10
10
10
10
10
FC
ENDCHAR
STARTCHAR eth
ENCODING -1
SWIDTH 602 0
DWIDTH 8 0
BBX 6 11 1 0
BITMAP
20
38
18
38
44
C4
84
84
84
4C
78
ENDCHAR
STARTCHAR ntilde
ENCODING -1
SWIDTH 602 0
DWIDTH 8 0
BBX 6 11 1 0
BITMAP
78
48
00
F8
C4
C4
C4
C4
C4
C4
C4
ENDCHAR
STARTCHAR ograve
ENCODING -1
SWIDTH 602 0
DWIDTH 8 0
BBX 6 12 1 0
BITMAP
40
20
10
00
78
CC
84
84
84
84
CC
78
ENDCHAR
STARTCHAR oacute
ENCODING -1
SWIDTH 602 0
DWIDTH 8 0
BBX 6 12 1 0
BITMAP
08
18
10
00
78
CC
84
84
84
84
CC
78
ENDCHAR
STARTCHAR ocircumflex
ENCODING -1
SWIDTH 602 0
DWIDTH 8 0
BBX 6 12 1 0
BITMAP
10
30
48
00
78
CC
84
84
84
84
CC
78
ENDCHAR
STARTCHAR otilde
ENCODING -1
SWIDTH 602 0
DWIDTH 8 0
BBX 6 11 1 0
BITMAP
78
48
00
78
CC
84
84
84
84
CC
78
ENDCHAR
STARTCHAR odieresis
ENCODING -1
SWIDTH 602 0
DWIDTH 8 0
BBX 6 11 1 0
BITMAP
68
00
00
78
CC
84
84
84
84
CC
78
ENDCHAR
STARTCHAR divide
ENCODING -1
SWIDTH 602 0
DWIDTH 8 0
BBX 7 7 1 1
BITMAP
30
30
00
FE
00
30
30
ENDCHAR
STARTCHAR oslash
ENCODING -1
SWIDTH 602 0
DWIDTH 8 0
BBX 7 8 1 0
BITMAP
7A
CC
8C
94
A4
E4
CC
F8
ENDCHAR
STARTCHAR ugrave
ENCODING -1
SWIDTH 602 0
DWIDTH 8 0
BBX 6 12 1 0
BITMAP
40
20
10
00
C4
C4
C4
C4
C4
C4
4C
74
ENDCHAR
STARTCHAR uacute
ENCODING -1
SWIDTH 602 0
DWIDTH 8 0
BBX 6 12 1 0
BITMAP
08
18
10
00
C4
C4
C4
C4
C4
C4
4C
74
ENDCHAR
STARTCHAR ucircumflex
ENCODING -1
SWIDTH 602 0
DWIDTH 8 0
BBX 6 12 1 0
BITMAP
10
30
48
00
C4
C4
C4
C4
C4
C4
4C
74
ENDCHAR
STARTCHAR udieresis
ENCODING -1
SWIDTH 602 0
DWIDTH 8 0
BBX 6 11 1 0
BITMAP
68
00
00
C4
C4
C4
C4
C4
C4
4C
74
ENDCHAR
STARTCHAR yacute
ENCODING -1
SWIDTH 602 0
DWIDTH 8 0
BBX 7 15 1 -3
BITMAP
08
18
10
00
86
C4
44
4C
68
28
30
10
30
20
E0
ENDCHAR
STARTCHAR thorn
ENCODING -1
SWIDTH 602 0
DWIDTH 8 0
BBX 7 14 1 -3
BITMAP
C0
C0
C0
F8
C4
C4
C6
C6
C4
C4
F8
C0
C0
C0
ENDCHAR
STARTCHAR ydieresis
ENCODING -1
SWIDTH 602 0
DWIDTH 8 0
BBX 7 14 1 -3
BITMAP
68
00
00
86
C4
44
4C
68
28
30
10
30
20
E0
ENDCHAR
STARTCHAR Cacute
ENCODING -1
SWIDTH 602 0
DWIDTH 8 0
BBX 6 13 1 0
BITMAP
08
10
18
74
40
C0
80
80
80
C0
C0
60
3C
ENDCHAR
STARTCHAR cacute
ENCODING -1
SWIDTH 602 0
DWIDTH 8 0
BBX 6 12 1 0
BITMAP
04
08
10
00
3C
60
40
C0
C0
40
60
3C
ENDCHAR
STARTCHAR Ccaron
ENCODING -1
SWIDTH 602 0
DWIDTH 8 0
BBX 6 13 1 0
BITMAP
28
10
18
74
40
C0
80
80
80
C0
C0
60
3C
ENDCHAR
STARTCHAR ccaron
ENCODING -1
SWIDTH 602 0
DWIDTH 8 0
BBX 6 12 1 0
BITMAP
24
28
18
00
3C
60
40
C0
C0
40
60
3C
ENDCHAR
STARTCHAR dcroat
ENCODING -1
SWIDTH 602 0
DWIDTH 8 0
BBX 7 11 1 0
BITMAP
04
1E
04
74
CC
84
84
84
84
CC
74
ENDCHAR
STARTCHAR Gbreve
ENCODING -1
SWIDTH 602 0
DWIDTH 8 0
BBX 7 13 1 0
BITMAP
78
00
18
6C
C0
80
80
8E
8E
86
C6
46
3C
ENDCHAR
STARTCHAR gbreve
ENCODING -1
SWIDTH 602 0
DWIDTH 8 0
BBX 6 15 1 -3
BITMAP
40
68
10
00
74
CC
84
84
84
84
CC
74
04
0C
78
ENDCHAR
STARTCHAR Idotaccent
ENCODING -1
SWIDTH 602 0
DWIDTH 8 0
BBX 6 13 1 0
BITMAP
10
00
FC
FC
10
10
10
10
10
10
10
10
FC
ENDCHAR
STARTCHAR dotlessi
ENCODING -1
SWIDTH 602 0
DWIDTH 8 0
BBX 6 8 1 0
BITMAP
70
10
10
10
10
10
10
FC
ENDCHAR
STARTCHAR Lslash
ENCODING -1
SWIDTH 602 0
DWIDTH 8 0
BBX 8 11 0 0
BITMAP
60
60
60
60
78
60
E0
E0
60
60
7F
ENDCHAR
STARTCHAR lslash
ENCODING -1
SWIDTH 602 0
DWIDTH 8 0
BBX 6 11 1 0
BITMAP
E0
20
24
2C
30
60
A0
20
20
30
1C
ENDCHAR
STARTCHAR OE
ENCODING -1
SWIDTH 602 0
DWIDTH 8 0
BBX 7 11 1 0
BITMAP
3E
FE
98
98
98
9E
98
98
98
D8
7E
ENDCHAR
STARTCHAR oe
ENCODING -1
SWIDTH 602 0
DWIDTH 8 0
BBX 8 8 0 0
BITMAP
77
D9
89
8F
8F
88
88
7F
ENDCHAR
STARTCHAR Scedilla
ENCODING -1
SWIDTH 602 0
DWIDTH 8 0
BBX 7 14 1 -3
BITMAP
38
6C
80
80
C0
78
0C
06
06
8C
F8
10
08
30
ENDCHAR
STARTCHAR scedilla
ENCODING -1
SWIDTH 602 0
DWIDTH 8 0
BBX 6 11 1 -3
BITMAP
7C
44
40
70
1C
04
8C
F8
10
08
30
ENDCHAR
STARTCHAR Scaron
ENCODING -1
SWIDTH 602 0
DWIDTH 8 0
BBX 7 13 1 0
BITMAP
28
10
38
6C
80
80
C0
78
0C
06
06
8C
F8
ENDCHAR
STARTCHAR scaron
ENCODING -1
SWIDTH 602 0
DWIDTH 8 0
BBX 6 12 1 0
BITMAP
48
28
30
00
7C
44
40
70
1C
04
8C
F8
ENDCHAR
STARTCHAR Ydieresis
ENCODING -1
SWIDTH 602 0
DWIDTH 8 0
BBX 8 13 0 0
BITMAP
34
00
C1
43
62
24
1C
18
08
08
08
08
08
ENDCHAR
STARTCHAR Zcaron
ENCODING -1
SWIDTH 602 0
DWIDTH 8 0
BBX 7 14 1 0
BITMAP
48
30
00
FE
FE
04
0C
18
10
30
20
40
C0
FE
ENDCHAR
STARTCHAR zcaron
ENCODING -1
SWIDTH 602 0
DWIDTH 8 0
BBX 6 12 1 0
BITMAP
48
28
30
00
7C
0C
08
10
30
60
40
FC
ENDCHAR
STARTCHAR florin
ENCODING -1
SWIDTH 602 0
DWIDTH 8 0
BBX 8 14 0 -3
BITMAP
07
04
0C
08
08
3E
08
08
18
18
10
10
30
E0
ENDCHAR
STARTCHAR circumflex
ENCODING -1
SWIDTH 602 0
DWIDTH 8 0
BBX 4 3 2 9
BITMAP
20
60
90
ENDCHAR
STARTCHAR caron
ENCODING -1
SWIDTH 602 0
DWIDTH 8 0
BBX 4 3 2 9
BITMAP
90
50
60
ENDCHAR
STARTCHAR breve
ENCODING -1
SWIDTH 602 0
DWIDTH 8 0
BBX 4 3 2 9
BITMAP
80
D0
20
ENDCHAR
STARTCHAR dotaccent
ENCODING -1
SWIDTH 602 0
DWIDTH 8 0
BBX 1 1 4 10
BITMAP
80
ENDCHAR
STARTCHAR ring
ENCODING -1
SWIDTH 602 0
DWIDTH 8 0
BBX 4 4 2 9
BITMAP
60
90
90
70
ENDCHAR
STARTCHAR ogonek
ENCODING -1
SWIDTH 602 0
DWIDTH 8 0
BBX 2 3 3 -3
BITMAP
80
80
C0
ENDCHAR
STARTCHAR tilde
ENCODING -1
SWIDTH 602 0
DWIDTH 8 0
BBX 4 2 2 9
BITMAP
F0
90
ENDCHAR
STARTCHAR hungarumlaut
ENCODING -1
SWIDTH 602 0
DWIDTH 8 0
BBX 4 3 3 9
BITMAP
50
A0
A0
ENDCHAR
STARTCHAR Omega
ENCODING -1
SWIDTH 602 0
DWIDTH 8 0
BBX 8 10 0 0
BITMAP
3E
62
43
43
43
43
43
62
24
F7
ENDCHAR
STARTCHAR pi
ENCODING -1
SWIDTH 602 0
DWIDTH 8 0
BBX 7 8 1 0
BITMAP
FE
44
44
44
44
44
44
46
ENDCHAR
STARTCHAR endash
ENCODING -1
SWIDTH 602 0
DWIDTH 8 0
BBX 8 1 0 4
BITMAP
FF
ENDCHAR
STARTCHAR emdash
ENCODING -1
SWIDTH 602 0
DWIDTH 8 0
BBX 8 1 0 4
BITMAP
FF
ENDCHAR
STARTCHAR quoteleft
ENCODING -1
SWIDTH 602 0
DWIDTH 8 0
BBX 2 4 3 7
BITMAP
40
40
C0
C0
ENDCHAR
STARTCHAR quoteright
ENCODING -1
SWIDTH 602 0
DWIDTH 8 0
BBX 3 4 3 7
BITMAP
60
40
40
C0
ENDCHAR
STARTCHAR quotesinglbase
ENCODING -1
SWIDTH 602 0
DWIDTH 8 0
BBX 2 4 3 -2
BITMAP
C0
C0
C0
80
ENDCHAR
STARTCHAR quotedblleft
ENCODING -1
SWIDTH 602 0
DWIDTH 8 0
BBX 6 4 1 7
BITMAP
64
4C
C8
C8
ENDCHAR
STARTCHAR quotedblright
ENCODING -1
SWIDTH 602 0
DWIDTH 8 0
BBX 5 4 2 7
BITMAP
D8
D8
90
90
ENDCHAR
STARTCHAR quotedblbase
ENCODING -1
SWIDTH 602 0
DWIDTH 8 0
BBX 5 4 2 -2
BITMAP
D8
D8
90
90
ENDCHAR
STARTCHAR dagger
ENCODING -1
SWIDTH 602 0
DWIDTH 8 0
BBX 6 12 1 -1
BITMAP
10
10
10
FC
10
10
10
10
10
10
10
10
ENDCHAR
STARTCHAR daggerdbl
ENCODING -1
SWIDTH 602 0
DWIDTH 8 0
BBX 6 12 1 -1
BITMAP
10
10
10
FC
10
10
10
10
FC
10
10
10
ENDCHAR
STARTCHAR bullet
ENCODING -1
SWIDTH 602 0
DWIDTH 8 0
BBX 4 5 2 3
BITMAP
20
F0
F0
F0
60
ENDCHAR
STARTCHAR ellipsis
ENCODING -1
SWIDTH 602 0
DWIDTH 8 0
BBX 7 2 1 0
BITMAP
B6
B6
ENDCHAR
STARTCHAR perthousand
ENCODING -1
SWIDTH 602 0
DWIDTH 8 0
BBX 8 10 0 0
BITMAP
E0
90
90
6E
30
C0
77
99
91
77
ENDCHAR
STARTCHAR guilsinglleft
ENCODING -1
SWIDTH 602 0
DWIDTH 8 0
BBX 4 7 2 1
BITMAP
10
30
60
C0
40
20
10
ENDCHAR
STARTCHAR guilsinglright
ENCODING -1
SWIDTH 602 0
DWIDTH 8 0
BBX 3 5 3 2
BITMAP
80
40
20
60
80
ENDCHAR
STARTCHAR Euro
ENCODING -1
SWIDTH 602 0
DWIDTH 8 0
BBX 7 11 0 0
BITMAP
0C
1A
20
20
FC
60
F8
20
20
30
1E
ENDCHAR
STARTCHAR trademark
ENCODING -1
SWIDTH 602 0
DWIDTH 8 0
BBX 8 4 0 7
BITMAP
EB
5B
55
41
ENDCHAR
STARTCHAR partialdiff
ENCODING -1
SWIDTH 602 0
DWIDTH 8 0
BBX 6 10 1 0
BITMAP
10
28
04
04
34
4C
CC
CC
48
50
ENDCHAR
STARTCHAR Delta
ENCODING -1
SWIDTH 602 0
DWIDTH 8 0
BBX 8 10 0 0
BITMAP
18
1C
14
24
26
22
42
43
C1
FF
ENDCHAR
STARTCHAR product
ENCODING -1
SWIDTH 602 0
DWIDTH 8 0
BBX 6 14 1 -3
BITMAP
FC
84
84
84
84
84
84
84
84
84
84
84
84
84
ENDCHAR
STARTCHAR summation
ENCODING -1
SWIDTH 602 0
DWIDTH 8 0
BBX 6 14 1 -3
BITMAP
FC
80
40
20
20
10
10
18
10
20
20
40
40
FC
ENDCHAR
STARTCHAR minus
ENCODING -1
SWIDTH 602 0
DWIDTH 8 0
BBX 7 1 1 4
BITMAP
FE
ENDCHAR
STARTCHAR fraction
ENCODING -1
SWIDTH 602 0
DWIDTH 8 0
BBX 6 12 1 -1
BITMAP
04
04
08
08
18
10
30
20
60
40
40
80
ENDCHAR
STARTCHAR periodcentered
ENCODING -1
SWIDTH 602 0
DWIDTH 8 0
BBX 2 2 3 4
BITMAP
C0
C0
ENDCHAR
STARTCHAR radical
ENCODING -1
SWIDTH 602 0
DWIDTH 8 0
BBX 7 12 1 0
BITMAP
02
02
04
04
04
88
48
48
50
30
30
30
ENDCHAR
STARTCHAR infinity
ENCODING -1
SWIDTH 602 0
DWIDTH 8 0
BBX 8 5 0 2
BITMAP
76
99
89
99
77
ENDCHAR
STARTCHAR integral
ENCODING -1
SWIDTH 602 0
DWIDTH 8 0
BBX 6 14 1 -3
BITMAP
0C
14
10
10
10
10
10
30
30
30
30
20
E0
C0
ENDCHAR
STARTCHAR approxequal
ENCODING -1
SWIDTH 602 0
DWIDTH 8 0
BBX 7 5 1 2
BITMAP
E2
9E
00
F2
0C
ENDCHAR
STARTCHAR notequal
ENCODING -1
SWIDTH 602 0
DWIDTH 8 0
BBX 7 9 1 0
BITMAP
04
04
FE
FE
30
FE
40
C0
80
ENDCHAR
STARTCHAR lessequal
ENCODING -1
SWIDTH 602 0
DWIDTH 8 0
BBX 7 8 1 0
BITMAP
02
1E
F0
C0
3C
06
00
FE
ENDCHAR
STARTCHAR greaterequal
ENCODING -1
SWIDTH 602 0
DWIDTH 8 0
BBX 7 7 1 0
BITMAP
F0
1E
0E
78
C0
00
FE
ENDCHAR
STARTCHAR lozenge
ENCODING -1
SWIDTH 602 0
DWIDTH 8 0
BBX 7 14 1 -3
BITMAP
10
30
28
48
44
84
82
84
84
48
48
28
30
10
ENDCHAR
STARTCHAR fi
ENCODING -1
SWIDTH 602 0
DWIDTH 8 0
BBX 7 11 0 0
BITMAP
3A
22
20
FE
22
22
22
22
22
22
22
ENDCHAR
STARTCHAR fl
ENCODING -1
SWIDTH 602 0
DWIDTH 8 0
BBX 7 11 0 0
BITMAP
3E
22
22
FA
22
22
22
22
22
22
22
ENDCHAR
STARTCHAR .notdef
ENCODING -1
SWIDTH 602 0
DWIDTH 8 0
BBX 7 13 1 -3
BITMAP
FE
82
82
82
82
82
82
82
82
82
82
82
FE
ENDCHAR
STARTCHAR c6459
ENCODING -1
SWIDTH 602 0
DWIDTH 8 0
BBX 4 2 2 9
BITMAP
D0
D0
ENDCHAR
STARTCHAR c6460
ENCODING -1
SWIDTH 602 0
DWIDTH 8 0
BBX 2 2 4 9
BITMAP
C0
80
ENDCHAR
STARTCHAR c6461
ENCODING -1
SWIDTH 602 0
DWIDTH 8 0
BBX 4 2 2 9
BITMAP
40
B0
ENDCHAR
STARTCHAR c6468
ENCODING -1
SWIDTH 602 0
DWIDTH 8 0
BBX 2 2 3 9
BITMAP
80
40
ENDCHAR
STARTCHAR c6470
ENCODING -1
SWIDTH 602 0
DWIDTH 8 0
BBX 4 2 2 9
BITMAP
60
90
ENDCHAR
STARTCHAR c6472
ENCODING -1
SWIDTH 602 0
DWIDTH 8 0
BBX 4 2 2 9
BITMAP
90
60
ENDCHAR
STARTCHAR c6477
ENCODING -1
SWIDTH 602 0
DWIDTH 8 0
BBX 8 3 0 3
BITMAP
07
78
80
ENDCHAR
STARTCHAR c6478
ENCODING -1
SWIDTH 602 0
DWIDTH 8 0
BBX 4 6 2 5
BITMAP
20
20
60
A0
F0
20
ENDCHAR
STARTCHAR c6475
ENCODING -1
SWIDTH 602 0
DWIDTH 8 0
BBX 4 2 2 9
BITMAP
90
60
ENDCHAR
STARTCHAR c6476
ENCODING -1
SWIDTH 602 0
DWIDTH 8 0
BBX 1 2 4 9
BITMAP
80
80
ENDCHAR
ENDFONT
